<svg width="58" height="58" viewBox="0 0 58 58" fill="none" xmlns="http://www.w3.org/2000/svg">
<path id="Path 222" d="M57.488 28.805C57.4878 34.502 55.8018 40.0709 52.6432 44.8076C49.4846 49.5443 44.9953 53.2361 39.743 55.416C34.4906 57.5959 28.7112 58.1662 23.1354 57.0546C17.5597 55.943 12.438 53.1995 8.41826 49.171C4.39847 45.1426 1.66105 40.0101 0.552141 34.4226C-0.556772 28.8351 0.0126364 23.0436 2.18837 17.7804C4.3641 12.5172 8.04844 8.01874 12.7755 4.85386C17.5025 1.68898 23.0599 -0.000183779 28.7449 1.49971e-08C32.5196 0.00012205 36.2573 0.745287 39.7447 2.19294C43.232 3.6406 46.4007 5.76239 49.0697 8.43719C51.7387 11.112 53.8559 14.2874 55.3003 17.7821C56.7447 21.2768 57.4881 25.0224 57.488 28.805ZM25.4222 44.0517L46.7442 22.685C46.9168 22.5126 47.0537 22.3077 47.1471 22.0821C47.2406 21.8566 47.2886 21.6147 47.2886 21.3705C47.2886 21.1263 47.2406 20.8845 47.1471 20.6589C47.0537 20.4334 46.9168 20.2285 46.7442 20.056L44.1207 17.4463C43.949 17.2735 43.7448 17.1363 43.5201 17.0428C43.2953 16.9492 43.0543 16.9011 42.8109 16.9011C42.5675 16.9011 42.3265 16.9492 42.1017 17.0428C41.8769 17.1363 41.6728 17.2735 41.501 17.4463L24.1106 34.8733L15.9907 26.7172C15.6421 26.3699 15.1705 26.1749 14.6789 26.1749C14.1874 26.1749 13.7158 26.3699 13.3672 26.7172L10.7437 29.3617C10.3971 29.711 10.2025 30.1836 10.2025 30.6762C10.2025 31.1688 10.3971 31.6414 10.7437 31.9907L22.7993 44.0672C22.9714 44.2401 23.1759 44.3773 23.401 44.4709C23.6261 44.5645 23.8674 44.6127 24.1111 44.6127C24.3548 44.6127 24.5961 44.5645 24.8212 44.4709C25.0463 44.3773 25.2507 44.2401 25.4228 44.0672L25.4222 44.0517Z" fill="#26B645"/>
</svg>
