<svg width="21" height="20" viewBox="0 0 21 20" fill="none" xmlns="http://www.w3.org/2000/svg">
<path d="M2.752 8C2.58416 8.6534 2.49949 9.32538 2.5 10C2.5 10.69 2.588 11.36 2.752 12H5.6C5.46518 10.6701 5.46518 9.32993 5.6 8H2.752ZM3.57 6H5.916C6.182 4.783 6.566 3.693 7.037 2.786C5.58518 3.48542 4.37722 4.60523 3.57 6ZM18.248 8H15.4C15.5348 9.32993 15.5348 10.6701 15.4 12H18.248C18.5847 10.6879 18.5847 9.31208 18.248 8ZM17.43 6C16.6228 4.60523 15.4148 3.48542 13.963 2.786C14.435 3.693 14.818 4.783 15.084 6H17.43ZM7.612 8C7.53708 8.66403 7.49968 9.33176 7.5 10C7.5 10.685 7.538 11.355 7.612 12H13.388C13.5386 10.6709 13.5386 9.32908 13.388 8H7.612ZM7.97 6H13.03C12.848 5.2483 12.5855 4.51841 12.247 3.823C11.619 2.568 10.947 2 10.5 2C10.052 2 9.381 2.568 8.753 3.823C8.438 4.455 8.173 5.19 7.97 6ZM3.57 14C4.37722 15.3948 5.58518 16.5146 7.037 17.214C6.565 16.307 6.182 15.217 5.916 14H3.57ZM17.43 14H15.084C14.818 15.217 14.434 16.307 13.963 17.214C15.4148 16.5146 16.6228 15.3948 17.43 14ZM7.97 14C8.173 14.81 8.438 15.545 8.753 16.177C9.381 17.432 10.053 18 10.5 18C10.948 18 11.619 17.432 12.247 16.177C12.562 15.545 12.827 14.81 13.03 14H7.97ZM10.5 20C4.977 20 0.5 15.523 0.5 10C0.5 4.477 4.977 0 10.5 0C16.023 0 20.5 4.477 20.5 10C20.5 15.523 16.023 20 10.5 20Z" fill="#4D625F"/>
</svg>
